<svg width="547" height="403" viewBox="0 0 547 403" fill="none" xmlns="http://www.w3.org/2000/svg">
<path opacity="0.6" d="M317.818 96.3979C282.751 95.1784 249.325 83.8501 217.456 71.4585C185.586 59.067 153.999 45.3349 119.753 38.7688C97.7341 34.5408 72.5528 33.9462 54.8151 45.7582C37.7422 57.1218 32.2275 76.7397 29.2612 94.9416C27.0301 108.638 25.7358 123.051 31.8347 135.876C36.0803 144.775 43.6145 152.258 48.827 160.785C66.9575 190.451 54.1403 227.036 34.4888 256.027C25.2725 269.633 14.5805 282.579 7.46929 297.047C0.358105 311.514 -2.9356 328.089 3.28921 342.844C9.45862 357.458 24.1544 368.453 40.079 376.178C72.4219 391.856 110.531 396.341 147.694 398.911C229.956 404.539 312.661 402.1 395.14 399.661C425.665 398.754 456.325 397.842 486.352 393.11C503.027 390.485 520.245 386.323 532.353 376.274C547.718 363.515 551.531 341.916 541.232 325.917C523.957 299.088 476.198 292.421 464.121 263.626C457.479 247.778 464.303 230.12 473.962 215.421C494.676 183.89 529.406 156.224 531.235 120.178C532.494 95.4203 515.798 70.6321 489.983 58.9158C462.928 46.625 425.408 48.1771 405.449 68.4904C384.896 89.4185 348.776 97.4713 317.818 96.3979Z" fill="#587EEC"/>
<path d="M112.436 365.36C112.436 365.36 84.7368 344.407 79.5042 317.754C77.3822 306.56 71.6903 296.356 63.2824 288.672C59.2602 285.058 54.9159 281.819 50.304 278.997" stroke="#9AB1F3" stroke-width="2" stroke-miterlimit="10"/>
<path d="M46.9146 262.206C49.342 265.492 50.4399 279.415 50.4399 279.415C50.4399 279.415 37.4615 274.301 35.029 271.02C33.8609 269.443 33.3668 267.466 33.6554 265.525C33.9439 263.583 34.9915 261.836 36.5676 260.667C38.1437 259.498 40.1193 259.004 42.0597 259.292C44.0002 259.581 45.7465 260.629 46.9146 262.206V262.206Z" fill="#587EEC"/>
<path d="M70.1922 273.131C70.4441 277.208 63.8113 289.494 63.8113 289.494C63.8113 289.494 55.6878 278.135 55.431 274.059C55.3333 272.115 56.0049 270.211 57.3003 268.76C58.5957 267.308 60.4105 266.426 62.3515 266.304C64.2925 266.182 66.2034 266.83 67.6701 268.108C69.1368 269.386 70.0411 271.191 70.1872 273.131H70.1922Z" fill="#587EEC"/>
<path d="M92.7545 304.536C90.9213 308.185 78.9905 315.441 78.9905 315.441C78.9905 315.441 77.7163 301.533 79.5495 297.884C80.4519 296.169 81.9914 294.876 83.8368 294.284C85.6821 293.693 87.6857 293.85 89.4164 294.722C91.1472 295.594 92.4667 297.111 93.091 298.946C93.7153 300.782 93.5944 302.789 92.7545 304.536V304.536Z" fill="#587EEC"/>
<path d="M104.484 332.131C103.29 336.037 92.7594 345.203 92.7594 345.203C92.7594 345.203 89.1484 331.713 90.342 327.802C90.9157 325.926 92.2109 324.354 93.9426 323.434C95.6743 322.513 97.7007 322.318 99.576 322.892C101.451 323.466 103.022 324.762 103.942 326.494C104.863 328.227 105.058 330.255 104.484 332.131V332.131Z" fill="#587EEC"/>
<path d="M51.8047 299.371C55.8337 299.915 68.5704 294.16 68.5704 294.16C68.5704 294.16 57.8231 285.251 53.7739 284.707C51.8305 284.445 49.8629 284.967 48.304 286.158C46.7452 287.348 45.7227 289.109 45.4616 291.054C45.2004 292.998 45.722 294.967 46.9116 296.527C48.1012 298.087 49.8613 299.11 51.8047 299.371V299.371Z" fill="#587EEC"/>
<path d="M65.9314 331.476C69.9604 330.786 80.3703 321.488 80.3703 321.488C80.3703 321.488 67.4473 316.207 63.4233 316.897C62.4599 317.055 61.5373 317.403 60.7088 317.92C59.8802 318.436 59.1622 319.112 58.5961 319.908C58.0299 320.704 57.6269 321.604 57.4103 322.556C57.1937 323.509 57.1678 324.495 57.3341 325.458C57.5003 326.42 57.8555 327.34 58.379 328.165C58.9026 328.989 59.5842 329.702 60.3844 330.261C61.1847 330.821 62.0877 331.216 63.0415 331.425C63.9953 331.633 64.9809 331.651 65.9415 331.476H65.9314Z" fill="#587EEC"/>
<path d="M83.936 360.8C88.0204 360.8 99.8556 353.397 99.8556 353.397C99.8556 353.397 88.0153 346.004 83.9309 346.004C81.9701 346.004 80.0896 346.784 78.7031 348.171C77.3166 349.558 76.5377 351.44 76.5377 353.402C76.5377 355.364 77.3166 357.245 78.7031 358.633C80.0896 360.02 81.9701 360.8 83.9309 360.8H83.936Z" fill="#587EEC"/>
<path d="M381.523 184.133C381.523 184.133 398.596 153.872 424.331 145.154C435.138 141.563 444.489 134.563 450.983 125.203C454.029 120.729 456.657 115.984 458.835 111.028" stroke="#9AB1F3" stroke-width="2" stroke-miterlimit="10"/>
<path d="M474.991 105.485C472.06 108.327 458.417 111.27 458.417 111.27C458.417 111.27 461.766 97.7141 464.697 94.8669C466.112 93.5415 467.99 92.825 469.928 92.8716C471.865 92.9183 473.707 93.7243 475.056 95.1162C476.406 96.5081 477.155 98.3746 477.143 100.314C477.131 102.253 476.358 104.11 474.991 105.485Z" fill="#587EEC"/>
<path d="M467.275 129.991C463.246 130.787 450.218 125.838 450.218 125.838C450.218 125.838 460.391 116.264 464.395 115.483C465.356 115.269 466.35 115.25 467.319 115.426C468.288 115.603 469.212 115.971 470.037 116.509C470.861 117.048 471.57 117.746 472.122 118.562C472.673 119.378 473.056 120.297 473.248 121.263C473.44 122.229 473.437 123.225 473.239 124.19C473.041 125.155 472.653 126.071 472.097 126.884C471.54 127.697 470.827 128.391 469.999 128.924C469.171 129.458 468.245 129.82 467.275 129.991V129.991Z" fill="#587EEC"/>
<path d="M439.193 156.538C435.336 155.202 426.567 144.338 426.567 144.338C426.567 144.338 440.165 141.223 444.033 142.559C444.962 142.867 445.821 143.357 446.56 144.001C447.298 144.644 447.902 145.427 448.335 146.306C448.768 147.184 449.023 148.14 449.084 149.118C449.145 150.096 449.012 151.076 448.691 152.002C448.371 152.927 447.87 153.78 447.217 154.511C446.565 155.241 445.773 155.834 444.89 156.256C444.006 156.678 443.048 156.921 442.07 156.969C441.092 157.017 440.114 156.871 439.193 156.538V156.538Z" fill="#587EEC"/>
<path d="M413.388 171.837C409.359 171.172 398.903 161.925 398.903 161.925C398.903 161.925 411.791 156.553 415.815 157.218C417.752 157.537 419.483 158.612 420.627 160.208C421.771 161.804 422.235 163.789 421.916 165.727C421.598 167.665 420.523 169.397 418.928 170.541C417.334 171.686 415.35 172.151 413.413 171.832L413.388 171.837Z" fill="#587EEC"/>
<path d="M438.841 115.241C438.836 119.328 446.244 131.185 446.244 131.185C446.244 131.185 453.642 119.343 453.642 115.261C453.668 114.274 453.496 113.291 453.136 112.371C452.776 111.451 452.236 110.613 451.547 109.906C450.858 109.198 450.035 108.636 449.126 108.252C448.216 107.868 447.239 107.67 446.252 107.67C445.265 107.67 444.287 107.868 443.378 108.252C442.468 108.636 441.645 109.198 440.956 109.906C440.267 110.613 439.727 111.451 439.367 112.371C439.007 113.291 438.835 114.274 438.861 115.261L438.841 115.241Z" fill="#587EEC"/>
<path d="M408.91 133.513C410.129 137.414 420.725 146.509 420.725 146.509C420.725 146.509 424.251 132.994 423.022 129.094C422.385 127.287 421.071 125.798 419.359 124.94C417.646 124.082 415.668 123.923 413.84 124.496C412.013 125.069 410.478 126.329 409.561 128.011C408.643 129.693 408.414 131.665 408.92 133.513H408.91Z" fill="#587EEC"/>
<path d="M382.284 155.268C382.828 159.299 391.732 170.068 391.732 170.068C391.732 170.068 397.478 157.344 396.934 153.297C396.826 152.317 396.523 151.368 396.044 150.506C395.564 149.645 394.917 148.888 394.14 148.28C393.364 147.672 392.474 147.226 391.522 146.968C390.571 146.709 389.577 146.644 388.6 146.775C387.623 146.907 386.683 147.232 385.833 147.733C384.984 148.234 384.243 148.899 383.654 149.69C383.066 150.482 382.641 151.383 382.406 152.341C382.171 153.298 382.129 154.294 382.284 155.268V155.268Z" fill="#587EEC"/>
<path opacity="0.25" d="M474.991 105.485C472.06 108.327 458.417 111.27 458.417 111.27C458.417 111.27 461.766 97.7141 464.697 94.8669C466.112 93.5415 467.99 92.825 469.928 92.8716C471.865 92.9183 473.707 93.7243 475.056 95.1162C476.406 96.5081 477.155 98.3746 477.143 100.314C477.131 102.253 476.358 104.11 474.991 105.485Z" fill="black"/>
<path opacity="0.25" d="M467.275 129.991C463.246 130.787 450.218 125.838 450.218 125.838C450.218 125.838 460.391 116.264 464.395 115.483C465.356 115.269 466.35 115.25 467.319 115.426C468.288 115.603 469.212 115.971 470.037 116.509C470.861 117.048 471.57 117.746 472.122 118.562C472.673 119.378 473.056 120.297 473.248 121.263C473.44 122.229 473.437 123.225 473.239 124.19C473.041 125.155 472.653 126.071 472.097 126.884C471.54 127.697 470.827 128.391 469.999 128.924C469.171 129.458 468.245 129.82 467.275 129.991V129.991Z" fill="black"/>
<path opacity="0.25" d="M439.193 156.538C435.336 155.202 426.567 144.338 426.567 144.338C426.567 144.338 440.165 141.223 444.033 142.559C444.962 142.867 445.821 143.357 446.56 144.001C447.298 144.644 447.902 145.427 448.335 146.306C448.768 147.184 449.023 148.14 449.084 149.118C449.145 150.096 449.012 151.076 448.691 152.002C448.371 152.927 447.87 153.78 447.217 154.511C446.565 155.241 445.773 155.834 444.89 156.256C444.006 156.678 443.048 156.921 442.07 156.969C441.092 157.017 440.114 156.871 439.193 156.538V156.538Z" fill="black"/>
<path opacity="0.25" d="M413.388 171.837C409.359 171.172 398.903 161.925 398.903 161.925C398.903 161.925 411.791 156.553 415.815 157.218C417.752 157.537 419.483 158.612 420.627 160.208C421.771 161.804 422.235 163.789 421.916 165.727C421.598 167.665 420.523 169.397 418.928 170.541C417.334 171.686 415.35 172.151 413.413 171.832L413.388 171.837Z" fill="black"/>
<path opacity="0.25" d="M438.841 115.241C438.836 119.328 446.244 131.185 446.244 131.185C446.244 131.185 453.642 119.343 453.642 115.261C453.668 114.274 453.496 113.291 453.136 112.371C452.776 111.451 452.236 110.613 451.547 109.906C450.858 109.198 450.035 108.636 449.126 108.252C448.216 107.868 447.239 107.67 446.252 107.67C445.265 107.67 444.287 107.868 443.378 108.252C442.468 108.636 441.645 109.198 440.956 109.906C440.267 110.613 439.727 111.451 439.367 112.371C439.007 113.291 438.835 114.274 438.861 115.261L438.841 115.241Z" fill="black"/>
<path opacity="0.25" d="M408.91 133.513C410.129 137.414 420.725 146.509 420.725 146.509C420.725 146.509 424.251 132.994 423.022 129.094C422.385 127.287 421.071 125.798 419.359 124.94C417.646 124.082 415.668 123.923 413.84 124.496C412.013 125.069 410.478 126.329 409.561 128.011C408.643 129.693 408.414 131.665 408.92 133.513H408.91Z" fill="black"/>
<path opacity="0.25" d="M382.284 155.268C382.828 159.299 391.732 170.068 391.732 170.068C391.732 170.068 397.478 157.344 396.934 153.297C396.826 152.317 396.523 151.368 396.044 150.506C395.564 149.645 394.917 148.888 394.14 148.28C393.364 147.672 392.474 147.226 391.522 146.968C390.571 146.709 389.577 146.644 388.6 146.775C387.623 146.907 386.683 147.232 385.833 147.733C384.984 148.234 384.243 148.899 383.654 149.69C383.066 150.482 382.641 151.383 382.406 152.341C382.171 153.298 382.129 154.294 382.284 155.268V155.268Z" fill="black"/>
<path d="M382.505 183.533C382.505 183.533 385.859 148.943 405.833 130.55C414.258 122.884 419.972 112.693 422.12 101.504C423.098 96.1844 423.585 90.7865 423.576 85.3781" stroke="#9AB1F3" stroke-width="2" stroke-miterlimit="10"/>
<path d="M436.096 73.7071C434.585 77.4966 423.284 85.7207 423.284 85.7207C423.284 85.7207 420.856 71.9685 422.382 68.179C423.117 66.3594 424.544 64.9063 426.349 64.1394C428.155 63.3724 430.191 63.3546 432.009 64.0896C433.828 64.8247 435.28 66.2525 436.046 68.059C436.813 69.8654 436.831 71.9026 436.096 73.7222V73.7071Z" fill="#587EEC"/>
<path d="M438.972 99.2663C435.633 101.615 421.697 102.386 421.697 102.386C421.697 102.386 427.126 89.5153 430.465 87.167C431.257 86.574 432.16 86.146 433.12 85.9083C434.08 85.6707 435.078 85.6283 436.055 85.7835C437.032 85.9388 437.968 86.2886 438.807 86.8123C439.647 87.3359 440.372 88.0227 440.942 88.8321C441.511 89.6414 441.912 90.5569 442.121 91.5241C442.331 92.4914 442.344 93.4909 442.16 94.4633C441.976 95.4358 441.6 96.3615 441.052 97.1857C440.504 98.0098 439.797 98.7156 438.972 99.2612V99.2663Z" fill="#587EEC"/>
<path d="M424.034 134.934C419.965 135.277 407.546 128.887 407.546 128.887C407.546 128.887 418.726 120.522 422.795 120.179C424.75 120.015 426.689 120.634 428.187 121.9C429.685 123.167 430.619 124.977 430.783 126.932C430.947 128.887 430.329 130.828 429.063 132.326C427.797 133.825 425.988 134.76 424.034 134.924V134.934Z" fill="#587EEC"/>
<path d="M406.654 159.37C402.701 160.378 389.385 156.21 389.385 156.21C389.385 156.21 398.989 146.076 402.942 145.048C404.84 144.556 406.856 144.838 408.546 145.832C410.237 146.827 411.463 148.453 411.955 150.352C412.447 152.251 412.165 154.268 411.171 155.959C410.177 157.65 408.552 158.877 406.654 159.37V159.37Z" fill="#587EEC"/>
<path d="M407.007 97.311C408.659 101.045 420.212 108.901 420.212 108.901C420.212 108.901 422.176 95.0735 420.524 91.3394C419.701 89.5924 418.228 88.2367 416.419 87.5622C414.61 86.8876 412.609 86.9476 410.844 87.7293C409.079 88.5111 407.69 89.9526 406.973 91.7458C406.256 93.539 406.268 95.5418 407.007 97.3261V97.311Z" fill="#587EEC"/>
<path d="M387.043 126.146C389.737 129.215 403.104 133.236 403.104 133.236C403.104 133.236 400.847 119.454 398.153 116.385C397.517 115.639 396.739 115.028 395.865 114.585C394.991 114.143 394.037 113.879 393.06 113.809C392.083 113.738 391.102 113.863 390.173 114.175C389.245 114.488 388.388 114.982 387.652 115.629C386.915 116.275 386.315 117.062 385.886 117.943C385.456 118.824 385.205 119.781 385.149 120.76C385.092 121.738 385.23 122.718 385.556 123.643C385.881 124.568 386.386 125.418 387.043 126.146V126.146Z" fill="#587EEC"/>
<path d="M371.486 156.845C373.621 160.322 386.116 166.546 386.116 166.546C386.116 166.546 386.222 152.582 384.102 149.1C383.046 147.492 381.407 146.359 379.53 145.94C377.654 145.522 375.688 145.852 374.05 146.859C372.413 147.867 371.232 149.473 370.758 151.337C370.284 153.201 370.554 155.177 371.511 156.845H371.486Z" fill="#587EEC"/>
<path d="M356.82 48.0723C357.656 45.0034 358.664 41.9194 359.369 38.8101C358.523 41.9194 357.51 45.0135 356.82 48.0723Z" fill="url(#paint0_linear_4_6)"/>
<path d="M353.073 77.6327C353.003 77.5117 352.953 77.3908 352.897 77.2799C352.897 77.2295 352.847 77.1892 352.827 77.1388C352.717 77.1906 352.604 77.2361 352.489 77.2749C352.268 77.3606 352.041 77.4412 351.809 77.5067C351.578 77.5722 351.482 77.6075 351.306 77.6478C351.16 77.6982 351.01 77.7369 350.857 77.7637L350.898 77.8544C351.084 77.8141 351.265 77.7788 351.452 77.7284L351.502 78.3533C351.714 78.3533 351.91 78.3231 352.101 78.3231C352.192 78.3181 352.283 78.3181 352.373 78.3231C352.766 78.3231 353.109 78.3231 353.381 78.3231C353.275 78.0963 353.164 77.8594 353.073 77.6327ZM455.309 240.467C452.942 237.277 448.218 203.04 448.218 203.04C448.218 203.04 438.926 178.695 441.46 168.98C443.993 159.264 434.54 134.405 434.54 134.405C434.54 134.405 428.295 131.689 427.957 127.658C427.957 127.658 402.459 119.595 401.265 113.548C400.298 108.589 384.484 105.031 378.804 103.907C377.071 96.9129 375.329 90.3871 374.044 86.8243C373.697 85.7157 373.369 84.7582 373.067 84.0023C370.897 78.4591 364.188 77.9552 359.323 78.3986C359.113 77.4539 358.721 76.5589 358.17 75.7631C358.09 75.4895 357.93 75.2458 357.712 75.0626C357.607 74.9736 357.496 74.8927 357.379 74.8208C357.291 74.6574 357.175 74.5108 357.037 74.3874C356.899 74.2628 356.747 74.1546 356.584 74.0649C356.467 74.0015 356.345 73.946 356.221 73.8986C355.929 73.7874 355.627 73.7047 355.32 73.6516C354.961 73.5778 354.597 73.5307 354.232 73.5106C355.121 73.1215 355.913 72.5417 356.553 71.8123C356.989 71.3002 357.313 70.703 357.505 70.0586C357.665 69.5228 357.736 68.9646 357.717 68.4058C357.586 68.636 357.434 68.8537 357.264 69.0558C357.475 66.8234 356.297 64.5558 355.622 62.3334C354.804 59.4403 354.653 56.3993 355.179 53.4391C355.853 48.9743 357.525 44.4591 358.659 39.9137C358.661 39.8886 358.661 39.8632 358.659 39.8381C359.253 37.5808 359.621 35.2697 359.756 32.9393C359.953 28.2377 358.749 23.5461 356.815 19.2628C355.098 15.4682 352.565 11.7341 348.687 10.1921C345.806 9.02799 342.578 9.21444 339.475 9.02295C332.515 8.58957 325.878 6.14048 319.26 3.91312C312.642 1.68576 305.833 -0.340025 298.868 0.0479989C291.903 0.436023 284.736 3.79722 281.559 9.96529C280.551 11.8903 279.972 14.032 278.768 15.8411C276.512 19.2527 272.473 20.961 269.104 23.3143C265.735 25.6677 262.768 29.0087 261.55 32.9948C260.884 35.1423 260.79 37.4265 261.278 39.6214V39.6214C261.387 40.1171 261.529 40.6052 261.701 41.0828C262.179 42.4143 262.924 43.6337 263.891 44.6657C264.621 45.4285 265.459 46.0789 266.379 46.5958V46.5958C267.535 47.2366 268.771 47.718 270.056 48.0269C270.01 48.1781 269.965 48.3394 269.915 48.4956C269.834 48.7526 269.764 48.9995 269.688 49.2767C269.522 49.8965 269.366 50.5264 269.235 51.1614C269.23 51.2066 269.23 51.2522 269.235 51.2974C268.616 54.1637 268.306 57.088 268.308 60.0204C268.307 61.4072 268.378 62.7932 268.52 64.1728V64.1728C270.534 84.6221 287.406 100.753 308.251 101.801C308.966 101.836 309.686 101.856 310.416 101.856C310.749 101.856 311.076 101.856 311.424 101.856C311.751 102.29 312.073 102.733 312.38 103.167C312.688 103.6 312.97 104.044 313.237 104.477L312.506 103.721L311.776 103.051C311.578 103.323 311.357 103.577 311.116 103.812C310.64 103.644 310.154 103.506 309.661 103.398V103.398C307.571 102.935 304.388 102.764 300.198 104.028C296.345 105.182 291.636 107.556 286.126 112.066L259.278 128.192L244.754 137.031L239.521 149.83C239.521 149.83 235.588 165.039 231.211 182.465C231.04 182.515 230.874 182.565 230.708 182.626C230.353 182.586 229.997 182.565 229.64 182.565C227.101 182.56 224.658 183.538 222.825 185.297C220.992 187.055 219.911 189.455 219.809 191.994C211.106 202.576 210.613 213.159 212.658 218.017C212.843 218.472 213.076 218.906 213.353 219.312C214.692 221.247 217.195 226.236 219.734 231.552C219.668 231.991 219.628 232.359 219.608 232.636C219.603 232.726 219.603 232.817 219.608 232.908C219.608 232.908 221.118 255.741 216.082 262.287C214.979 263.713 215.145 265.588 216.082 267.664C219.457 275.132 232.798 285.105 232.798 285.105C232.798 285.105 248.798 285.019 257.712 284.046C257.687 284.943 257.667 285.835 257.646 286.707C257.445 295.516 257.445 302.898 257.445 302.898L257.113 312.135C257.113 312.135 254.091 331.602 252.58 336.969C251.628 340.335 252.726 371.503 253.683 394.417H411.328C413.181 380.861 410.567 339.675 410.567 339.675C410.567 339.675 408.084 329.027 407.994 319.745C407.989 319.734 407.986 319.723 407.986 319.712C407.986 319.701 407.989 319.689 407.994 319.679C407.994 318.868 407.994 318.077 408.024 317.301L409.167 317.26L411.222 317.19H411.408C411.408 317.19 411.459 316.998 411.574 316.686C411.846 315.908 412.217 315.167 412.677 314.484C413.554 313.189 414.924 311.919 416.983 311.833C418.122 311.788 419.884 310.865 421.874 309.505C421.887 309.508 421.901 309.508 421.914 309.505C427.267 305.882 434.343 299.194 436.061 298.096C438.423 296.584 449.734 286.506 449.734 286.506C449.734 286.506 451.421 284.369 453.219 281.794L453.285 281.703C455.521 278.478 457.898 274.623 457.314 273.408C456.306 271.232 457.989 266.026 457.989 266.026C463.241 256.406 457.676 243.657 455.309 240.467ZM357.923 85.4687C357.972 85.6192 358.002 85.7748 358.014 85.9324C357.888 85.7661 357.762 85.5897 357.636 85.4284L357.515 85.2672L357.43 85.1462L357.621 84.8842C357.621 84.8842 357.621 84.8842 357.621 84.9195C357.754 85.0828 357.856 85.2689 357.923 85.4687V85.4687ZM356.231 81.0039C355.682 81.1148 355.249 81.2156 354.967 81.2912C354.609 80.6562 354.267 80.0213 353.96 79.3763C354.767 79.845 355.528 80.39 356.231 81.0039V81.0039ZM355.284 81.8002C355.283 81.7901 355.283 81.7799 355.284 81.7699L355.325 81.8002C355.531 81.9362 355.733 82.0672 355.919 82.2033C356.085 82.3242 356.236 82.4401 356.387 82.5611C356.286 82.7375 356.176 82.9189 356.065 83.065C355.889 82.7879 355.722 82.5208 355.561 82.2436C355.461 82.1328 355.37 81.9816 355.284 81.8002ZM352.263 75.5817C353.236 75.4856 354.216 75.4856 355.189 75.5817V75.5817C355.325 75.5817 355.445 75.6069 355.566 75.627C355.839 75.6693 356.108 75.7385 356.367 75.8337C356.962 76.6668 357.329 77.6416 357.43 78.6607L357.158 78.701L356.891 78.7514C356.387 78.8371 355.884 78.9227 355.491 79.0034L354.987 79.1092C354.317 79.2553 353.93 79.3662 353.914 79.3712C353.849 79.2352 353.783 79.1092 353.713 78.9782C353.602 78.7615 353.486 78.5397 353.386 78.3231C353.285 78.1064 353.154 77.8594 353.048 77.6327C352.978 77.5117 352.927 77.3908 352.872 77.2799C352.872 77.2295 352.822 77.1892 352.801 77.1388C352.772 77.0854 352.747 77.0298 352.726 76.9725C352.419 76.3477 352.137 75.7228 351.865 75.108C351.834 75.0475 351.809 74.982 351.784 74.9215L352.167 74.8964V75.0274L352.263 75.5817ZM232.103 388.188C232.062 380.685 231.518 372.566 230.007 364.947C229.363 361.707 228.698 358.466 228.023 355.282C227.852 354.485 227.686 353.699 227.52 352.913L225.968 353.12H225.827C221.597 333.159 217.175 315.572 217.175 315.572C217.175 315.572 208.392 282.016 209.409 279.34C209.54 278.992 209.374 278.055 209.001 276.679C206.876 269.05 198.002 248.026 194.9 240.84C194.9 240.809 194.875 240.774 194.864 240.749C194.361 239.545 193.998 238.733 193.887 238.496L194.618 227.773L194.658 227.128L194.754 225.757L194.713 225.722L194.754 225.087C194.754 225.087 187.089 218.798 174.105 214.257C173.601 214.076 173.068 213.9 172.539 213.728C173.188 209.39 174.05 204.491 175.173 199.719C175.279 199.24 175.394 198.777 175.515 198.308C175.621 197.84 175.742 197.386 175.863 196.927C176.054 196.182 176.261 195.446 176.472 194.72C177.172 194.498 177.862 194.252 178.542 193.99L178.804 193.889C187.18 190.628 194.091 184.44 198.257 176.472C202.424 168.504 203.565 159.296 201.467 150.551V150.551C200.271 145.592 198.063 140.933 194.98 136.869C194.749 136.557 194.502 136.244 194.255 135.937C194.008 135.63 193.711 135.287 193.434 134.975C194.89 131.664 196.607 128.514 196.748 125.294C196.773 124.886 196.773 124.477 196.748 124.07V124.019C196.562 121.948 195.645 119.852 193.51 117.65C190.392 114.419 185.955 112.782 181.518 111.995C177.081 111.209 172.559 111.189 168.097 110.66C160.699 109.773 153.492 107.49 146.093 106.79C136.981 105.946 127.806 107.509 119.487 111.325C113.982 113.845 108.407 118.249 108.075 124.291C107.803 129.285 111.278 134.073 110.401 139.006C109.53 143.854 104.595 147.669 105.028 152.572C105.194 154.487 106.176 156.2 107.405 157.727C107.828 158.231 108.276 158.735 108.74 159.239C110.532 161.139 112.507 162.963 113.509 165.356C113.549 165.457 113.589 165.558 113.625 165.659C114.476 168.022 114.093 171.01 111.988 172.366C112 172.375 112.008 172.387 112.013 172.401V172.401C112.043 172.442 112.074 172.472 112.099 172.512C112.102 172.504 112.102 172.495 112.099 172.487C112.845 173.372 113.851 174 114.974 174.281L115.402 174.412C115.055 174.79 114.728 175.183 114.395 175.596L114.179 175.883C113.624 176.63 113.119 177.413 112.668 178.227C112.411 178.68 112.164 179.134 111.958 179.587C111.267 180.97 110.768 182.439 110.472 183.956C109.933 187.292 110.694 190.769 109.878 194.035C108.87 198.066 105.683 201.16 103.885 204.905C100.48 211.96 102.409 220.239 103.094 228.03C104.026 238.612 102.515 249.24 101.009 259.752C100.21 265.342 99.4107 270.938 98.6116 276.538C96.5971 290.594 94.5826 304.65 92.5681 318.707C91.8328 323.857 90.9615 329.289 87.5319 333.265H87.5671C87.5671 333.265 87.5671 333.295 87.5319 333.305C88.5614 333.756 89.6564 334.038 90.7752 334.142V334.142C95.2524 334.59 99.9966 332.423 104.026 330.055C107.216 328.21 110.238 326.087 113.056 323.711C112.643 325.222 112.199 326.87 111.726 328.644C111.728 328.661 111.728 328.678 111.726 328.694V328.694C106.04 350.363 96.8942 390.088 96.8942 390.088C96.8942 390.088 96.0633 391.816 94.9855 394.391H237.008C235.346 392.376 233.8 390.446 232.591 388.889L232.103 388.188ZM126.946 187.826C126.981 187.766 127.006 187.711 127.041 187.655C127.041 187.816 127.041 187.973 127.041 188.124C127.041 188.275 127.041 188.411 127.041 188.552C127.041 188.693 127.041 188.678 127.041 188.749C127.041 188.819 127.041 188.749 127.041 188.749C127.041 188.955 126.996 189.162 126.961 189.369C126.961 189.369 126.961 189.394 126.961 189.414L127.464 189.6L128.049 189.842C131.5 191.206 134.995 192.441 138.534 193.546C138.897 193.662 139.264 193.773 139.632 193.879L139.707 194.504C139.798 195.144 139.884 195.794 139.964 196.444C139.964 196.444 139.964 196.474 139.964 196.494C140.191 198.293 140.413 200.087 140.609 201.841C140.609 201.841 131.362 198.313 131.478 203.67C131.473 203.766 131.473 203.862 131.478 203.957C131.468 204.085 131.468 204.213 131.478 204.34C131.564 208.513 132.868 210.987 133.13 212.257C133.114 212.309 133.087 212.358 133.05 212.398C132.826 212.884 132.749 213.426 132.828 213.955C132.819 214.857 132.89 215.757 133.039 216.646C132.767 216.812 132.501 216.979 132.234 217.15C132.032 217.276 131.841 217.417 131.644 217.558C130.409 213.27 128.793 209.101 126.815 205.101C125.43 202.249 123.873 199.276 123.889 196.146C123.889 195.945 123.889 195.738 123.914 195.532C123.97 194.625 124.143 193.729 124.427 192.866C124.543 192.538 124.669 192.216 124.81 191.898C125.139 191.144 125.507 190.407 125.913 189.691C126.175 189.217 126.452 188.749 126.719 188.275C126.805 188.134 126.885 187.988 126.966 187.847L126.946 187.826ZM353.073 77.6327C353.003 77.5117 352.953 77.3908 352.897 77.2799C352.897 77.2295 352.847 77.1892 352.827 77.1388C352.717 77.1906 352.604 77.2361 352.489 77.2749C352.268 77.3606 352.041 77.4412 351.809 77.5067C351.578 77.5722 351.482 77.6075 351.306 77.6478L350.857 77.7637L350.898 77.8544C351.084 77.8141 351.265 77.7788 351.452 77.7284L351.502 78.3533C351.714 78.3533 351.91 78.3231 352.101 78.3231H352.373C352.766 78.3231 353.109 78.3231 353.381 78.3231C353.275 78.0963 353.164 77.8594 353.073 77.6327Z" fill="url(#paint1_linear_4_6)"/>
<path d="M243.031 151.65L240.01 152.985C240.01 152.985 220.313 229.552 220.313 235.74C220.313 241.928 262.078 276.362 262.078 276.362L268.595 232.348C268.595 232.348 259.238 131.417 243.031 151.65Z" fill="#E8F5FF"/>
<path d="M334.646 127.295L317.195 118.184C316.218 114.014 314.483 110.06 312.078 106.518C309.525 102.829 306.13 99.2058 301.9 97.316C291.208 92.5186 347.125 67.3374 347.125 67.3374C348.006 70.3624 349.043 73.3396 350.233 76.2569C353.114 83.3724 357.893 92.5741 364.052 95.1945C374.523 99.6543 334.646 127.295 334.646 127.295Z" fill="#FFB0B1"/>
<path opacity="0.1" d="M350.233 76.2569C347.844 84.6649 342.875 92.1095 336.029 97.5393C329.183 102.969 320.805 106.11 312.078 106.518C309.525 102.829 306.13 99.2058 301.9 97.316C291.208 92.5186 347.125 67.3374 347.125 67.3374C348.006 70.3624 349.043 73.3396 350.233 76.2569V76.2569Z" fill="black"/>
<path d="M351.804 63.5429C351.806 71.789 349.364 79.8505 344.787 86.7078C340.21 93.5651 333.703 98.9102 326.09 102.067C318.476 105.224 310.098 106.051 302.015 104.443C293.932 102.835 286.507 98.8645 280.68 93.0339C274.852 87.2034 270.883 79.7745 269.275 71.6869C267.667 63.5992 268.492 55.2161 271.646 47.5977C274.8 39.9794 280.141 33.4681 286.994 28.8873C293.847 24.3065 301.903 21.862 310.144 21.863C315.622 21.8377 321.05 22.8984 326.116 24.984C331.181 27.0695 335.784 30.1386 339.657 34.0139C343.531 37.8893 346.598 42.494 348.683 47.5624C350.768 52.6307 351.829 58.0621 351.804 63.5429V63.5429Z" fill="#FFB0B1"/>
<path d="M357.817 121.943L346.456 148.47L336.434 166.077H304.353L294.995 142.004L298.788 117.04H323.289L339.108 116.148L344.451 114.364L347.896 116.319L357.817 121.943Z" fill="#575A89"/>
<path opacity="0.1" d="M353.904 86.5824C353.904 86.5824 360.99 88.0942 354.645 93.2997C348.299 98.5053 326.406 115.059 326.406 115.059C326.406 115.059 334.097 121.913 332.505 129.94L357.984 115.73L362.516 92.9923C362.516 92.9923 363.025 86.1591 353.904 86.5824Z" fill="black"/>
<path opacity="0.1" d="M331.417 115.059L315.211 117.735C315.211 117.735 318.555 130.107 316.883 133.619C316.832 133.728 316.79 133.841 316.757 133.957L310.144 151.841L315.1 165.886L332.253 142.478L326.406 133.619C326.406 133.619 332.586 125.425 336.262 122.583C339.939 119.741 331.417 115.059 331.417 115.059Z" fill="black"/>
<path d="M331.417 114.369L315.211 117.04C315.211 117.04 318.555 129.411 316.883 132.924C316.832 133.033 316.79 133.146 316.757 133.261L310.144 151.146L315.1 165.19L332.253 141.768L326.406 132.908C326.406 132.908 332.586 124.715 336.262 121.872C339.939 119.03 331.417 114.369 331.417 114.369Z" fill="#DCE6F2"/>
<path d="M354.584 85.247C354.584 85.247 361.67 86.7588 355.32 91.9643C348.969 97.1699 326.406 115.059 326.406 115.059C326.406 115.059 334.762 120.577 333.175 128.6L358.654 114.394L363.186 91.6569C363.186 91.6569 363.69 84.8237 354.584 85.247Z" fill="#575A89"/>
<path opacity="0.1" d="M313.191 108.095C313.191 108.095 314.738 110.988 321.562 116.203C321.562 116.203 310.2 122.25 314.546 130.752L297.166 126.216L294.492 117.856L313.191 108.095Z" fill="black"/>
<path d="M312.521 107.43C312.521 107.43 314.067 110.322 320.892 115.538C320.892 115.538 309.53 121.555 313.876 130.081L296.501 125.546L293.827 117.191L312.521 107.43Z" fill="#575A89"/>
<path opacity="0.1" d="M357.817 121.943L346.456 148.47L336.454 166.077H304.353L294.995 142.004L298.783 117.04H305.597C305.486 122.865 307.611 129.709 307.475 132.253C307.243 136.436 313.71 159.002 313.71 159.002C313.71 159.002 327.242 137.101 332.586 135.151C335.945 133.926 343.061 123.737 347.891 116.319L357.817 121.943Z" fill="black"/>
<path d="M402.575 261.536L401.421 262.987C401.421 262.987 409.777 304.949 407.465 314.479C407.072 316.196 406.848 317.948 406.795 319.709V319.785C406.387 329.481 409.313 342.064 409.313 342.064C409.313 342.064 411.65 379.153 410.32 394.407H253.884C252.968 371.851 251.981 342.628 252.877 339.388C254.388 334.041 257.41 314.645 257.41 314.645L257.742 305.453C257.742 305.453 257.742 296.569 258.014 286.672C258.13 282.222 258.301 277.551 258.548 273.409C258.865 268.198 259.308 263.809 259.918 261.652C260.293 260.017 260.509 258.35 260.562 256.673C260.562 256.517 260.562 256.356 260.593 256.194C260.593 255.69 260.643 255.146 260.663 254.587C260.663 254.431 260.663 254.274 260.663 254.083C260.759 250.838 260.724 246.988 260.618 242.997C260.618 242.78 260.618 242.558 260.618 242.336C260.532 239.343 260.406 236.289 260.265 233.387C259.827 224.316 259.258 216.646 259.258 216.646L240.045 152.95L245.222 140.19L259.59 131.382L286.157 115.332C299.115 104.673 307.646 105.953 310.9 107.123C311.216 107.23 311.525 107.357 311.826 107.501C311.927 107.551 312.008 107.591 312.083 107.637C312.187 107.686 312.286 107.743 312.38 107.808V107.808C311.49 108.237 310.716 108.875 310.124 109.667C309.458 110.569 308.983 111.598 308.729 112.691C308.559 113.368 308.439 114.057 308.372 114.752C308.306 115.483 308.281 116.239 308.281 117C308.317 118.668 308.46 120.333 308.709 121.983C308.709 122.014 308.709 122.054 308.709 122.094C308.875 123.273 309.082 124.427 309.283 125.511C309.281 125.529 309.281 125.548 309.283 125.566C309.515 126.831 309.747 128 309.903 129.008C309.933 129.19 309.958 129.356 309.983 129.512C310.094 130.178 310.146 130.853 310.139 131.528C310.196 133.158 310.415 134.779 310.794 136.365C310.925 137.031 311.076 137.741 311.242 138.482C311.469 139.49 311.716 140.588 311.983 141.707C312.129 142.322 312.285 142.957 312.446 143.587C312.506 143.839 312.572 144.091 312.632 144.348L312.733 144.746C313.806 149.014 314.969 153.262 315.684 155.832C316.107 157.344 316.374 158.276 316.374 158.276C316.374 158.276 323.959 146.006 330.012 139.021C330.103 138.92 330.184 138.825 330.269 138.734C330.869 138.044 331.458 137.414 332.022 136.859C333.256 135.63 334.364 134.753 335.255 134.43C335.445 134.361 335.629 134.275 335.804 134.173C338.282 132.767 342.281 127.663 346.023 122.316C346.39 121.812 346.748 121.263 347.11 120.744C347.941 119.544 348.747 118.34 349.508 117.186C350.092 116.304 350.651 115.447 351.18 114.631C353.698 110.711 355.471 107.788 355.471 107.788L358.966 107.632L359.575 107.601H359.983L375.852 106.866C375.852 106.866 376.537 106.981 377.665 107.208C377.726 107.208 377.786 107.208 377.852 107.249C383.482 108.367 399.125 111.91 400.082 116.823C401.25 122.84 426.482 130.868 426.482 130.868C426.814 134.899 432.994 137.555 432.994 137.555C432.994 137.555 442.351 162.298 439.848 171.993C437.375 181.568 446.284 205.252 446.521 205.918L444.814 208.074L402.575 261.536Z" fill="#E8F5FF"/>
<path opacity="0.1" d="M353.899 84.8238C353.899 84.8238 369.345 80.4396 372.856 89.465C376.366 98.4903 384.218 134.939 384.218 134.939C384.218 134.939 363.831 138.784 358.487 134.939C355.353 132.657 351.474 131.642 347.624 132.097L336.096 139.953L332.692 138.946C332.692 138.946 351.134 111.512 355.143 102.189C359.152 92.8665 360.507 88.699 353.899 84.8238Z" fill="black"/>
<path d="M353.23 82.808C353.23 82.808 368.686 78.4239 372.211 87.4492C375.737 96.4745 383.573 132.924 383.573 132.924C383.573 132.924 363.191 136.769 357.843 132.924C354.71 130.642 350.833 129.626 346.985 130.081L335.447 137.938L332.042 136.93C332.042 136.93 350.485 109.496 354.494 100.173C358.502 90.8507 359.837 86.6933 353.23 82.808Z" fill="#E8F5FF"/>
<path opacity="0.1" d="M249.548 228.216C249.548 228.216 261.076 231.058 263.252 237.579C265.428 244.1 254.731 244.266 254.731 244.266C254.731 244.266 248.214 232.731 249.548 228.216Z" fill="black"/>
<path opacity="0.1" d="M292.487 276.362C292.487 276.362 264.254 334.207 270.771 339.725C277.288 345.243 292.487 276.362 292.487 276.362Z" fill="black"/>
<path opacity="0.1" d="M331.417 233.734C331.417 233.734 353.975 289.922 349.462 298.6C344.95 307.278 359.152 298.6 359.152 298.6L331.417 233.734Z" fill="black"/>
<path d="M362.829 289.237C362.829 289.237 286.64 292.916 308.865 316.656C331.09 340.396 376.699 317.663 376.699 317.663L362.829 289.237Z" fill="#FFB0B1"/>
<path opacity="0.1" d="M351.804 63.5428C351.811 69.0105 350.738 74.4256 348.647 79.477C347.947 79.5576 347.247 79.608 346.572 79.6382C345.564 77.426 346.103 74.8711 346.123 72.4371C346.144 70.0031 345.247 67.1408 342.905 66.4857C338.237 65.1705 335.013 73.9035 330.41 72.3262C326.885 71.1269 327.807 65.7752 325.777 62.6861C324.17 60.2421 320.952 59.5517 318.449 58.0197C313.126 54.7492 313.287 49.5185 310.814 44.5699C308.226 39.3845 302.756 40.9164 298.007 43.9753C294.401 46.3034 291.289 49.4227 287.431 51.2772C284.092 52.8897 280.34 53.4743 276.638 53.56C274.359 53.6483 272.08 53.4073 269.87 52.8444C272.469 43.0651 278.535 34.5658 286.935 28.9314C295.336 23.297 305.498 20.9121 315.526 22.2216C325.554 23.5311 334.764 28.4455 341.438 36.0484C348.112 43.6512 351.795 53.4235 351.799 63.5428H351.804Z" fill="black"/>
<path d="M298.022 42.64C294.411 44.9681 291.304 48.0824 287.446 49.9469C284.107 51.5545 280.355 52.139 276.653 52.2247C272.121 52.3255 267.241 51.5293 264.143 48.2537C261.298 45.2302 260.618 40.5789 261.822 36.613C263.025 32.6471 265.911 29.3565 269.3 26.9729C272.69 24.5893 276.623 22.9415 278.869 19.5299C280.058 17.7258 280.632 15.5992 281.619 13.6793C284.777 7.53641 291.878 4.21048 298.742 3.79726C305.607 3.38404 312.411 5.42999 318.948 7.64727C325.485 9.86455 332.072 12.3036 338.972 12.7621C342.044 12.9536 345.237 12.7621 348.088 13.9262C351.92 15.4833 354.433 19.2074 356.146 22.9969C358.064 27.2702 359.258 31.9366 359.057 36.6029C358.634 46.5656 352.056 56.3418 354.947 65.8862C355.713 68.431 357.148 71.0414 356.382 73.5862C355.264 77.3001 350.475 78.1467 346.602 78.3231C345.595 76.1109 346.134 73.5509 346.154 71.122C346.174 68.6931 345.277 65.8257 342.941 65.1706C338.267 63.8654 335.044 72.5834 330.451 71.0111C326.951 69.8067 327.857 64.4601 325.822 61.371C324.216 58.9219 320.993 58.2366 318.495 56.7046C313.171 53.4341 313.332 48.2034 310.86 43.2548C308.251 38.0442 302.776 39.5761 298.022 42.64Z" fill="#575A89"/>
<path d="M224.145 234.399L220.303 235.74C220.303 235.74 221.813 258.477 216.777 264.998C211.741 271.519 233.316 287.73 233.316 287.73C233.316 287.73 262.889 287.564 263.725 285.21C264.561 282.857 262.214 243.082 262.214 243.082C262.214 243.082 246.34 236.894 247.675 227.032C247.675 227.032 242.83 250.268 235.648 249.265C228.466 248.263 220.313 242.261 224.145 234.399Z" fill="#E8F5FF"/>
<path opacity="0.1" d="M236.963 256.3C242.562 256.3 247.101 252.147 247.101 247.023C247.101 241.899 242.562 237.746 236.963 237.746C231.364 237.746 226.825 241.899 226.825 247.023C226.825 252.147 231.364 256.3 236.963 256.3Z" fill="black"/>
<path d="M248.047 235.07C248.047 235.07 246.033 173.55 228.497 187.257C210.961 200.964 210.789 217.357 214.128 222.199C217.467 227.042 228.174 251.286 228.174 251.286C229.849 252.257 231.73 252.818 233.663 252.921C235.596 253.025 237.526 252.669 239.295 251.882C241.064 251.095 242.621 249.901 243.84 248.396C245.058 246.89 245.903 245.118 246.305 243.223L248.047 235.07Z" fill="#FFB0B1"/>
<path opacity="0.1" d="M357.44 79.2402C357.358 78.9699 357.201 78.7286 356.986 78.5448C356.12 77.7536 354.257 77.4764 351.447 77.7183L351.562 79.0487C355.309 78.7262 356.05 79.472 356.145 79.598V79.724L356.261 79.8903C356.728 80.5185 357.059 81.2375 357.233 82.0011C357.406 82.7648 357.418 83.5562 357.268 84.3248C356.448 88.4318 351.406 91.7023 351.356 91.7376L351.235 91.8082L351.16 91.9241C348.984 95.1542 336.68 104.27 333.462 106.629L333.18 106.306C331.74 107.556 319.079 118.647 318.394 122.895C317.95 125.561 314.949 126.594 313.861 126.882C312.713 126.01 308.986 123.042 307.047 119.716C305.229 116.586 312.547 110.479 313.191 108.095L312.184 107.062C312.078 107.445 302.681 116.234 305.294 120.724C307.389 124.327 311.217 127.411 312.557 128.429C312.129 132.319 309.464 155.162 305.37 160.574C300.283 167.302 296.008 201.206 296.481 213.043C296.899 223.56 294.154 243.425 284.988 251.956C283.401 253.498 281.487 254.661 279.388 255.359C277.289 256.057 275.059 256.272 272.866 255.988H272.755H272.644C272.513 255.988 259.218 257.348 248.047 247.925C238.907 240.23 233.729 227.672 232.652 210.589H232.43L232.339 205.615C234.818 205.228 237.05 203.895 238.566 201.896C240.083 199.897 240.766 197.387 240.472 194.894C240.179 192.402 238.931 190.12 236.991 188.529C235.051 186.937 232.57 186.16 230.07 186.361C227.569 186.561 225.244 187.724 223.582 189.604C221.92 191.484 221.052 193.935 221.158 196.443C221.265 198.951 222.339 201.319 224.154 203.051C225.97 204.783 228.385 205.744 230.894 205.731H231.005L231.095 210.675L230.652 210.705C231.76 228.342 237.199 241.389 246.768 249.447C254.041 255.477 263.331 258.519 272.76 257.958C273.429 258.031 274.102 258.068 274.775 258.069C279.097 258.091 283.255 256.418 286.358 253.408C296.013 244.413 298.949 223.817 298.49 212.942C297.987 200.399 302.474 167.715 306.976 161.763C311.388 155.923 314.062 133.165 314.531 128.756C316.127 128.308 319.738 126.892 320.353 123.213C320.796 120.552 329.252 112.353 334.454 107.813L334.298 107.631C337.098 105.586 345.806 99.1353 350.122 94.993C351.462 93.708 352.791 92.4229 354.181 91.1984C355.853 89.7168 357.979 87.3635 358.538 84.5818C358.728 83.6636 358.729 82.7161 358.54 81.7975C358.352 80.8789 357.977 80.0086 357.44 79.2402V79.2402Z" fill="black"/>
<path d="M312.386 128.111C312.174 127.965 307.158 124.372 304.645 120.048C302.036 115.558 311.434 106.775 311.534 106.392L312.542 107.425C311.902 109.803 304.584 115.916 306.403 119.04C308.694 122.986 313.519 126.438 313.569 126.473L312.386 128.111Z" fill="#353146"/>
<path d="M332.808 107.606L332.022 106.523C332.183 106.407 348.002 94.9578 350.495 91.2539L350.575 91.143L350.691 91.0675C350.742 91.0322 355.783 87.7667 356.604 83.6547C356.755 82.8869 356.744 82.0959 356.57 81.3329C356.397 80.5699 356.065 79.8518 355.597 79.2252L355.481 79.0538V78.9329C355.38 78.8019 354.64 78.0611 350.893 78.3836L350.777 77.0482C353.592 76.8063 355.451 77.0835 356.317 77.8746C356.532 78.0603 356.691 78.3031 356.775 78.5751C357.32 79.3413 357.702 80.211 357.897 81.1305C358.093 82.0501 358.099 83 357.913 83.9218C357.354 86.7085 355.234 89.0618 353.557 90.5383C352.172 91.7629 350.837 93.058 349.503 94.3329C344.441 99.1857 333.362 107.208 332.808 107.606Z" fill="#E8F5FF"/>
<path d="M231.689 203.861L230.355 203.885L230.504 212.002L231.838 211.978L231.689 203.861Z" fill="#E8F5FF"/>
<path d="M230.244 205.091C235.626 205.091 239.989 200.725 239.989 195.34C239.989 189.955 235.626 185.589 230.244 185.589C224.862 185.589 220.499 189.955 220.499 195.34C220.499 200.725 224.862 205.091 230.244 205.091Z" fill="#587EEC"/>
<path d="M230.244 203.438C234.714 203.438 238.338 199.813 238.338 195.34C238.338 190.868 234.714 187.242 230.244 187.242C225.774 187.242 222.151 190.868 222.151 195.34C222.151 199.813 225.774 203.438 230.244 203.438Z" fill="#E8F5FF"/>
<path d="M274.14 257.419C273.467 257.42 272.795 257.385 272.126 257.313C262.697 257.869 253.409 254.827 246.134 248.802C236.565 240.739 231.136 227.707 230.018 210.055L232.032 209.929C233.11 227.012 238.287 239.575 247.433 247.265C258.603 256.663 271.894 255.328 272.025 255.328H272.136H272.247C274.441 255.611 276.671 255.395 278.77 254.697C280.87 253.999 282.785 252.837 284.374 251.296C293.535 242.765 296.28 222.9 295.862 212.383C295.358 200.536 299.634 166.631 304.725 159.909C309.182 154.018 311.947 127.466 311.978 127.199L312.053 126.443L312.798 126.312C312.844 126.312 317.195 125.486 317.739 122.23C318.444 117.987 331.085 106.896 332.52 105.641L333.835 107.153C328.612 111.688 320.156 119.892 319.733 122.558C319.119 126.247 315.508 127.658 313.916 128.101C313.413 132.515 310.759 155.268 306.362 161.108C301.86 167.06 297.372 199.744 297.876 212.287C298.309 223.162 295.403 243.762 285.749 252.752C282.64 255.77 278.471 257.446 274.14 257.419Z" fill="#353146"/>
<g opacity="0.1">
<path opacity="0.1" d="M356.095 51.63C356.921 48.5762 357.918 45.5022 358.613 42.4081C357.782 45.5173 356.78 48.5762 356.095 51.63Z" fill="black"/>
<path opacity="0.1" d="M347.67 75.627C346.662 73.4148 347.201 70.8549 347.221 68.4259C347.241 65.997 346.345 63.1548 344.008 62.4745C339.335 61.1694 336.111 69.8924 331.518 68.3151C327.993 67.1107 328.925 61.764 326.89 58.6749C325.283 56.2258 322.065 55.5405 319.567 54.0086C314.239 50.7381 314.4 45.5073 311.932 40.5587C309.339 35.3683 303.874 36.9002 299.12 39.9641C295.509 42.2922 292.402 45.4115 288.544 47.271C285.205 48.8786 281.453 49.4631 277.751 49.5488C273.244 49.6546 268.338 48.8534 265.241 45.5778C262.854 43.0582 261.993 39.3644 262.486 35.9024C262.401 36.1393 262.325 36.3761 262.25 36.613C261.041 40.5789 261.746 45.2402 264.571 48.2537C267.669 51.5292 272.574 52.3254 277.081 52.2246C280.788 52.139 284.535 51.5544 287.879 49.9469C291.747 48.0824 294.854 44.9681 298.455 42.6399C303.209 39.5761 308.679 38.0441 311.267 43.2346C313.735 48.1832 313.579 53.4139 318.902 56.6844C321.421 58.1962 324.619 58.9017 326.23 61.3508C328.245 64.4499 327.353 69.7865 330.859 70.9909C335.447 72.5632 338.67 63.8452 343.343 65.1504C345.68 65.8055 346.582 68.6779 346.557 71.1018C346.531 73.5257 346.008 76.0907 347.005 78.3029C350.878 78.1265 355.667 77.295 356.79 73.566C356.945 73.0308 357.016 72.475 357.002 71.9181C355.365 74.7452 351.155 75.4708 347.67 75.627Z" fill="black"/>
</g>
<path opacity="0.1" d="M438.69 199.795L444.537 205.983C444.537 205.983 449.216 240.084 451.552 243.274C453.889 246.464 459.409 259.152 454.227 268.682C454.227 268.682 452.555 273.867 453.557 276.039C454.559 278.211 446.043 289.081 446.043 289.081C446.043 289.081 434.847 299.109 432.505 300.616C430.163 302.122 417.804 314.156 413.629 314.322C409.454 314.489 408.09 319.674 408.09 319.674L384.53 320.511C384.53 320.511 371.516 319.83 368.686 321.67C368.686 321.67 370.197 301.775 355.657 288.733L374.201 282.046C374.201 282.046 381.221 279.022 383.392 275.863C384.757 273.926 386.694 272.465 388.932 271.685C388.932 271.685 394.109 268.006 394.275 266.001C394.441 263.995 400.606 261.536 400.606 261.536L397.116 231.729L398.954 182.243C398.954 182.243 404.801 140.78 417.165 143.123C429.529 145.466 438.69 199.795 438.69 199.795Z" fill="black"/>
<path d="M440.704 199.795L446.551 205.983C446.551 205.983 451.23 240.084 453.567 243.274C455.904 246.464 461.423 259.152 456.241 268.682C456.241 268.682 454.574 273.867 455.576 276.039C456.579 278.211 448.057 289.081 448.057 289.081C448.057 289.081 436.862 299.109 434.52 300.616C432.178 302.122 419.819 314.156 415.644 314.322C411.469 314.489 410.104 319.674 410.104 319.674L386.544 320.511C386.544 320.511 373.521 319.83 370.7 321.67C370.7 321.67 372.211 301.775 357.672 288.733L376.215 282.046C376.215 282.046 383.236 279.022 385.406 275.863C386.772 273.926 388.709 272.465 390.946 271.685C390.946 271.685 396.123 268.006 396.289 266.001C396.456 263.995 402.62 261.536 402.62 261.536L399.13 231.729L400.968 182.243C400.968 182.243 406.815 140.78 419.179 143.123C431.543 145.466 440.704 199.795 440.704 199.795Z" fill="#E8F5FF"/>
<path opacity="0.1" d="M418.968 249.784C418.968 249.784 436.177 245.249 440.689 250.792C445.202 256.336 418.968 249.784 418.968 249.784Z" fill="black"/>
<path opacity="0.1" d="M414.959 257.389C420.806 261.486 438.851 261.652 438.851 261.652L414.959 257.389Z" fill="black"/>
<path opacity="0.1" d="M423.813 277.868C424.316 278.035 436.217 290.744 441.213 286.899C446.209 283.054 423.813 277.868 423.813 277.868Z" fill="black"/>
<path opacity="0.1" d="M263.539 171.207C263.539 171.207 267.034 195.285 265.312 205.091C263.589 214.898 269.875 227.047 269.875 227.047L263.539 171.207Z" fill="black"/>
<path d="M186.162 180.998C182.133 184.158 179.192 191.636 177.061 199.855C173.345 214.192 172.131 230.817 172.131 230.817C172.131 230.817 140.05 223.459 142.387 220.118C143.857 218.017 141.883 202.183 140.236 190.704C139.254 183.921 138.378 178.655 138.378 178.655C138.378 178.655 197.191 172.301 186.162 180.998Z" fill="#FFB0B1"/>
<path opacity="0.1" d="M186.162 180.328C182.133 183.493 179.192 190.966 177.061 199.185C170.67 201.127 163.872 201.302 157.389 199.692C150.905 198.082 144.979 194.746 140.236 190.039C139.254 183.251 138.378 177.985 138.378 177.985C138.378 177.985 197.191 171.635 186.162 180.328Z" fill="black"/>
<path d="M203.406 162.318C203.409 171.083 200.314 179.566 194.667 186.267C189.02 192.967 181.186 197.453 172.552 198.93C163.917 200.407 155.039 198.78 147.488 194.337C139.938 189.894 134.201 182.921 131.294 174.653C128.388 166.385 128.498 157.354 131.605 149.159C134.713 140.965 140.618 134.134 148.275 129.877C155.932 125.619 164.847 124.21 173.443 125.897C182.038 127.584 189.76 132.26 195.242 139.097C200.525 145.682 203.404 153.873 203.406 162.318V162.318Z" fill="#FFB0B1"/>
<path opacity="0.1" d="M232.656 394.407H222.08L221.189 375.716L220.257 356.37C220.257 356.37 222.659 356.012 226.487 355.478L228.033 355.271H228.159C228.995 359.197 229.821 363.229 230.617 367.255C231.941 374.403 232.631 381.654 232.677 388.924C232.677 389.428 232.677 389.932 232.677 390.405C232.707 391.751 232.677 393.096 232.656 394.407Z" fill="black"/>
<path d="M230.627 394.407H97.9922C98.5663 393.101 98.9491 392.31 98.9491 392.31C98.9491 392.31 109.56 345.858 114.954 326.205C114.956 326.188 114.956 326.171 114.954 326.155C115.628 323.485 116.442 320.852 117.392 318.268V318.268C117.453 318.092 117.533 317.924 117.629 317.764C120.298 313.42 123.642 308.739 118.963 302.052C114.284 295.365 115.941 265.94 115.941 265.94C115.941 265.94 121.622 240.86 127.636 227.486C128.548 225.414 129.843 223.533 131.453 221.942C131.976 221.43 132.535 220.955 133.125 220.521V220.521C133.574 220.184 134.041 219.873 134.525 219.589L134.621 219.529C137.147 218.096 139.952 217.224 142.845 216.974C144.9 216.759 146.975 216.816 149.014 217.145C158.765 218.576 166.571 220.97 172.776 223.696C189.592 231.089 194.683 240.996 194.784 241.203L194.824 241.288C195.499 242.865 205.37 265.925 208.926 276.684C209.847 279.486 210.351 281.456 210.15 281.995C209.142 284.666 217.835 318.102 217.835 318.102C217.835 318.102 221.864 334.228 225.893 353.13C226.069 353.916 226.235 354.702 226.396 355.498C227.117 358.93 227.832 362.427 228.522 365.92C229.859 373.117 230.548 380.419 230.582 387.74C230.656 390.021 230.671 392.243 230.627 394.407Z" fill="#EB5569"/>
<path opacity="0.1" d="M142.054 205.474C142.054 205.474 132.904 201.947 133.014 207.298C133.125 212.65 135.245 215.21 134.576 215.991C133.906 216.772 134.908 221.454 134.908 221.454C134.908 221.454 147.272 221.454 152.953 224.014C158.634 226.574 179.574 231.703 182.249 233.266C184.923 234.828 194.839 241.832 194.839 241.832L195.731 228.569C195.731 228.569 185.482 220.098 168.666 215.754C151.85 211.41 142.054 205.474 142.054 205.474Z" fill="black"/>
<path d="M142.054 204.804C142.054 204.804 132.904 201.276 133.014 206.628C133.125 211.98 135.245 214.54 134.576 215.321C133.906 216.102 134.908 220.783 134.908 220.783C134.908 220.783 147.272 220.783 152.953 223.348C158.634 225.913 179.574 231.038 182.249 232.595C184.923 234.153 194.839 241.162 194.839 241.162L195.741 227.939C195.741 227.939 185.492 219.468 168.676 215.124C151.86 210.78 142.054 204.804 142.054 204.804Z" fill="#EB5569"/>
<path opacity="0.1" d="M169.678 236.723C169.678 236.723 187.164 255.665 186.273 260.911C185.381 266.157 169.678 236.723 169.678 236.723Z" fill="black"/>
<path opacity="0.1" d="M141.274 305.151C141.274 305.151 128.457 316.968 124.679 317.638C120.902 318.309 127.575 320.536 131.916 318.757C136.258 316.978 145.514 312.297 145.514 312.297L141.274 305.151Z" fill="black"/>
<path d="M235.834 394.407H205.944C201.764 390.778 197.811 387.417 195.292 385.396C191.263 382.161 188.358 377.399 186.504 373.569C186.086 372.697 185.724 371.881 185.416 371.14C184.866 369.864 184.382 368.561 183.966 367.235L206.1 354.082C207.324 355.123 208.473 356.248 209.54 357.449L209.807 357.756C211.036 359.207 212.119 360.855 212.214 362.206C212.325 363.778 216.697 369.86 221.164 375.701C225.696 381.642 230.34 387.321 230.647 387.704C230.647 387.704 231.412 388.748 232.661 390.35C233.543 391.509 234.631 392.9 235.834 394.407Z" fill="#FFB0B1"/>
<path opacity="0.1" d="M195.242 139.097C194.18 141.495 193.228 143.985 193.087 146.656C192.689 154.366 193.334 171.605 184.802 175.475C180.577 177.38 176.054 173.198 171.421 173.097C168.087 173.026 165.03 175.143 162.995 177.788C160.961 180.434 159.696 183.573 158.221 186.567C156.878 189.284 155.33 191.895 153.593 194.378C153.073 195.137 152.501 195.86 151.88 196.539C146.678 194.343 142.046 190.987 138.336 186.728C134.626 182.469 131.937 177.419 130.473 171.962C129.01 166.506 128.81 160.787 129.89 155.241C130.97 149.696 133.301 144.47 136.704 139.963C140.108 135.455 144.496 131.784 149.532 129.23C154.568 126.676 160.121 125.306 165.767 125.225C171.413 125.143 177.002 126.352 182.11 128.76C187.218 131.167 191.71 134.71 195.242 139.117V139.097Z" fill="black"/>
<path d="M192.417 145.295C192.014 153.005 192.664 170.244 184.127 174.11C179.902 176.014 175.379 171.837 170.746 171.736C167.412 171.66 164.36 173.782 162.32 176.423C160.281 179.063 159.027 182.208 157.546 185.206C156.202 187.923 154.655 190.534 152.918 193.017C151.88 194.488 150.732 195.965 149.135 196.791C146.355 198.243 142.986 197.426 140.005 196.494C136.137 195.274 132.326 193.9 128.572 192.372C128.658 191.805 128.702 191.232 128.703 190.659C128.592 190.87 128.472 191.067 128.351 191.278L128.114 191.692C127.686 192.447 127.268 193.203 126.885 193.979C126.739 194.277 126.598 194.584 126.472 194.892C125.966 196.035 125.648 197.254 125.53 198.5C125.274 201.861 126.931 205.051 128.401 208.074C134.057 219.77 137.552 233.447 133.296 245.718C131.453 251.054 128.26 255.796 125.928 260.951C121.852 270.082 120.652 280.238 122.489 290.068C123.652 296.176 125.984 302.223 125.41 308.416C124.402 319.074 115.216 327.006 106.015 332.459C101.044 335.392 94.9604 338.002 89.6824 335.684C93.0466 331.753 93.9128 326.316 94.6381 321.186C96.6223 307.193 98.6117 293.194 100.606 279.188C101.402 273.615 102.196 268.042 102.988 262.468C104.469 251.997 105.97 241.409 105.043 230.872C104.368 223.106 102.464 214.862 105.829 207.832C107.606 204.108 110.774 201.024 111.761 197.013C112.572 193.753 111.817 190.286 112.351 186.965C112.643 185.454 113.137 183.989 113.821 182.611C114.692 180.74 115.828 179.006 117.195 177.461C115.846 177.068 114.587 176.528 113.821 175.4C115.987 173.989 116.314 170.809 115.332 168.42C114.35 166.032 112.386 164.212 110.618 162.328C108.85 160.443 107.148 158.246 106.927 155.676C106.498 150.783 111.384 146.993 112.245 142.166C113.116 137.252 109.671 132.475 109.948 127.501C110.271 121.489 115.79 117.12 121.24 114.586C129.463 110.777 138.546 109.212 147.569 110.05C154.912 110.746 162.018 113.018 169.341 113.9C173.758 114.404 178.235 114.455 182.621 115.231C187.008 116.007 191.405 117.644 194.492 120.865C202.63 129.356 192.88 136.345 192.417 145.295Z" fill="#575A89"/>
<path opacity="0.1" d="M185.608 373.574C183.039 372.46 178.366 373.126 170.343 370.682C162.32 368.238 160.774 357.191 160.774 357.191V357.156C160.678 356.904 159.933 355.261 154.887 349.507C149.311 343.152 137.26 311.057 137.26 311.057C137.26 311.057 126.573 299.572 126.91 295.339C127.248 291.106 125.012 279.844 125.233 267.245C125.455 254.647 149.291 246.292 149.291 246.292C195.187 238.154 184.379 291.096 183.155 295.108C181.931 299.119 188.282 309.953 188.282 309.953C187.386 314.67 191.958 321.972 191.958 321.972C191.958 321.972 193.066 328.432 193.293 330.886C193.306 331 193.331 331.111 193.369 331.219C194.104 333.532 200.097 335.628 202.535 336.903C205.098 338.244 213.342 349.945 213.342 349.945C215.12 358.537 188.166 374.703 185.608 373.574Z" fill="black"/>
<path d="M186.943 371.558C184.379 370.44 179.7 371.11 171.683 368.661C163.665 366.212 162.114 355.176 162.114 355.176V355.14C162.023 354.883 161.273 353.246 156.226 347.491C150.651 341.136 138.6 309.036 138.6 309.036C138.6 309.036 127.913 297.557 128.245 293.324C128.577 289.091 126.351 277.828 126.573 265.24C126.795 252.652 150.616 244.302 150.616 244.302C196.511 236.163 185.704 289.106 184.48 293.117C183.256 297.128 189.607 307.963 189.607 307.963C188.71 312.679 193.283 319.981 193.283 319.981C193.283 319.981 194.391 326.442 194.623 328.896C194.631 329.009 194.655 329.121 194.693 329.228C195.429 331.542 201.422 333.638 203.864 334.913C206.423 336.248 214.672 347.954 214.672 347.954C216.46 356.531 189.506 372.697 186.943 371.558Z" fill="#EB5569"/>
<path opacity="0.1" d="M151.523 271.942C151.523 271.942 171.572 293.107 176.805 293.107C182.037 293.107 151.523 271.942 151.523 271.942Z" fill="black"/>
<path d="M186.942 371.558C184.379 370.44 179.7 371.11 171.683 368.661C163.665 366.212 162.114 355.176 162.114 355.176V355.141C167.427 351.613 180.884 341.65 186.187 338.007C189.919 335.452 192.966 331.698 194.749 329.208C195.484 331.521 201.477 333.618 203.92 334.893C206.478 336.228 214.727 347.934 214.727 347.934C216.46 356.531 189.506 372.697 186.942 371.558Z" fill="#FF748E"/>
<g opacity="0.1">
<path opacity="0.1" d="M113.851 175.455C113.876 175.495 113.912 175.531 113.942 175.571C114.093 175.379 114.249 175.188 114.41 175.007C114.239 175.174 114.052 175.324 113.851 175.455V175.455Z" fill="black"/>
<path opacity="0.1" d="M125.535 198.555C125.747 195.758 127.243 193.294 128.643 190.835C127.726 190.482 126.81 190.124 125.903 189.752C125.989 189.186 126.033 188.615 126.034 188.043C124.619 190.563 123.078 193.042 122.861 195.879C122.604 199.246 124.261 202.43 125.732 205.454C131.393 217.145 134.883 230.822 130.627 243.097C128.779 248.429 125.591 253.176 123.259 258.331C119.184 267.46 117.986 277.615 119.824 287.443C120.978 293.556 123.314 299.598 122.74 305.791C121.733 316.449 112.552 324.381 103.346 329.828C99.5837 332.056 95.187 334.097 90.9817 333.95C90.5925 334.577 90.1582 335.175 89.6824 335.739C94.9654 338.073 101.044 335.447 106.015 332.504C115.226 327.062 124.427 319.15 125.435 308.472C126.009 302.279 123.672 296.236 122.514 290.124C120.675 280.297 121.87 270.143 125.938 261.012C128.255 255.862 131.478 251.11 133.306 245.778C137.562 233.503 134.067 219.826 128.411 208.135C126.946 205.091 125.279 201.921 125.535 198.555Z" fill="black"/>
<path opacity="0.1" d="M194.482 120.925C193.986 120.417 193.454 119.945 192.89 119.514C198.994 127.436 190.181 134.168 189.743 142.695C189.35 150.405 189.994 167.649 181.458 171.509C177.238 173.419 172.71 169.237 168.082 169.136C164.743 169.065 161.691 171.187 159.651 173.827C157.611 176.468 156.357 179.612 154.882 182.606C153.535 185.322 151.987 187.933 150.248 190.417C149.241 191.893 148.063 193.365 146.461 194.196C143.691 195.642 140.322 194.831 137.335 193.894C134.431 192.98 131.554 191.972 128.703 190.87C128.697 191.395 128.654 191.919 128.572 192.437C132.329 193.969 136.142 195.343 140.01 196.559C142.991 197.497 146.36 198.308 149.135 196.862C150.732 196.03 151.89 194.554 152.923 193.077C154.662 190.597 156.209 187.988 157.551 185.272C159.032 182.278 160.281 179.129 162.325 176.488C164.37 173.847 167.417 171.731 170.751 171.802C175.384 171.902 179.912 176.085 184.132 174.175C192.669 170.315 192.019 153.071 192.417 145.36C192.88 136.396 202.63 129.411 194.482 120.925Z" fill="black"/>
</g>
<path opacity="0.1" d="M128.119 191.697C127.691 192.453 127.273 193.208 126.89 193.984C126.744 194.282 126.603 194.589 126.477 194.897C123.838 192.236 117.412 185.912 113.826 183.951C114.698 182.081 115.834 180.347 117.2 178.801C117.2 178.801 125.747 183.321 128.119 191.697Z" fill="black"/>
<path d="M128.356 191.284C126.377 182.319 117.2 177.466 117.2 177.466C115.833 179.011 114.697 180.745 113.826 182.616C117.608 184.687 124.579 191.631 126.89 193.985L128.356 191.284Z" fill="#EB5569"/>
<defs>
<linearGradient id="paint0_linear_4_6" x1="358.094" y1="48.0723" x2="358.094" y2="38.8101" gradientUnits="userSpaceOnUse">
<stop stop-color="#808080" stop-opacity="0.25"/>
<stop offset="0.54" stop-color="#808080" stop-opacity="0.12"/>
<stop offset="1" stop-color="#808080" stop-opacity="0.1"/>
</linearGradient>
<linearGradient id="paint1_linear_4_6" x1="231040" y1="331838" x2="231040" y2="23136.5" gradientUnits="userSpaceOnUse">
<stop stop-color="#808080" stop-opacity="0.25"/>
<stop offset="0.54" stop-color="#808080" stop-opacity="0.12"/>
<stop offset="1" stop-color="#808080" stop-opacity="0.1"/>
</linearGradient>
</defs>
</svg>
